<svg xmlns="http://www.w3.org/2000/svg" width="512" height="512" viewBox="0 0 512 512">
  <title>DLUT Online — 圆角导航方案</title>
  <desc>扁平化蓝色标志：同心圆与工字骨架、圆角导航箭头及右上连接节点。透明背景。</desc>
  <g fill="#005BAC">
    <path d="M 438.0536,147.3700 A 212,212 0 1 1 364.6300,73.9464 L 348.2330,101.4262 A 180,180 0 1 0 410.5738,163.7670 Z"/>
    <path d="M 116.0000,208 A 148,148 0 0 1 396.0000,208 H 361.6030 A 116,116 0 0 0 150.3970,208 Z M 396.0000,304 A 148,148 0 0 1 116.0000,304 H 150.3970 A 116,116 0 0 0 361.6030,304 Z"/>
    <path d="M 240,60 H 272 V 124 H 240 Z M 240,388 H 272 V 452 H 240 Z"/>
    <path d="M 108.8674,240 H 183.6841 Q 192.7158,240 189.2179,248.3247 L 181.0179,267.8376 Q 179.2692,272 174.7533,272 H 108.8674 A 148,148 0 0 1 108.8674,240 Z M 328.3159,240 H 403.1326 A 148,148 0 0 1 403.1326,272 H 337.2467 Q 332.7308,272 330.9821,267.8376 L 322.7821,248.3247 Q 319.2842,240 328.3159,240 Z"/>
    <path d="M 247.4774,192.2821 Q 256.0000,172.0000 264.5226,192.2821 L 307.4774,294.5057 Q 316.0000,314.7878 296.0000,305.8585 L 276.0000,296.9293 Q 256.0000,288.0000 236.0000,296.9293 L 216.0000,305.8585 Q 196.0000,314.7878 204.5226,294.5057 Z"/>
    <circle cx="394.5929" cy="117.4071" r="16"/>
  </g>
</svg>
